<?xml version="1.0" standalone="no"?>
<!DOCTYPE svg PUBLIC "-//W3C//DTD SVG 20010904//EN"
 "http://www.w3.org/TR/2001/REC-SVG-20010904/DTD/svg10.dtd">
<svg version="1.0" xmlns="http://www.w3.org/2000/svg"
 width="1280.000000pt" height="1024.000000pt" viewBox="0 0 1280.000000 1024.000000"
 preserveAspectRatio="xMidYMid meet">
<metadata>
Created by potrace 1.16, written by Peter Selinger 2001-2019
</metadata>
<g transform="translate(0.000000,1024.000000) scale(0.100000,-0.100000)"
fill="#000000" stroke="none">
<path d="M7160 8989 c-47 -4 -140 -17 -208 -28 -284 -47 -584 -52 -852 -14
-94 13 -190 17 -390 17 -313 0 -338 -5 -565 -108 -77 -35 -399 -168 -715 -296
-316 -127 -611 -250 -655 -273 -159 -83 -338 -243 -454 -407 -216 -307 -712
-1241 -841 -1585 -22 -60 -62 -146 -88 -190 -27 -44 -55 -98 -64 -121 -56
-139 -54 -562 2 -691 35 -81 169 -201 368 -331 176 -115 407 -228 686 -334
151 -57 244 -75 431 -84 120 -6 137 -9 146 -26 18 -33 -7 -996 -36 -1443 -9
-126 -22 -340 -30 -475 -8 -135 -17 -263 -20 -285 -3 -22 -16 -121 -30 -220
-58 -430 -56 -793 6 -982 55 -166 194 -228 638 -282 370 -46 921 -82 1531
-102 392 -13 1463 -7 1815 11 1091 53 1293 116 1363 424 26 115 22 504 -11
936 -15 195 -38 540 -52 765 -14 226 -32 496 -40 600 -8 105 -17 348 -21 541
-6 337 -1 507 16 534 6 10 55 14 192 15 228 3 284 12 528 86 380 114 528 182
807 366 141 94 204 160 226 240 39 141 40 433 2 598 -16 71 -251 576 -332 714
-31 53 -77 128 -103 166 -88 132 -158 260 -220 405 -85 197 -311 668 -365 760
-112 191 -278 351 -455 440 -36 18 -353 141 -705 272 -352 131 -698 264 -768
294 -71 30 -154 61 -185 69 -120 32 -361 42 -552 24z m116 -118 c5 -5 34 -16
64 -26 30 -10 78 -30 105 -45 28 -15 95 -45 150 -65 55 -20 251 -93 435 -162
998 -372 933 -344 1059 -457 76 -69 128 -128 182 -207 45 -67 285 -560 379
-779 79 -186 119 -260 239 -445 128 -196 136 -210 229 -410 44 -93 103 -219
132 -280 96 -202 93 -192 72 -234 -31 -61 -358 -272 -548 -355 -190 -82 -648
-221 -701 -213 -70 12 -67 8 -311 435 -35 63 -68 110 -72 105 -7 -8 -61 -195
-94 -328 -56 -225 -97 -553 -98 -788 -1 -479 4 -743 18 -867 8 -74 30 -387 49
-695 20 -308 42 -650 50 -760 33 -443 45 -619 45 -651 0 -76 -111 -154 -254
-179 -496 -86 -2052 -111 -3126 -50 -325 19 -449 29 -750 61 -373 39 -461 66
-496 150 -27 64 -13 300 36 619 30 193 42 333 60 695 5 113 17 268 26 345 12
100 16 213 15 395 0 140 5 350 13 465 26 370 27 426 17 620 -12 225 -49 496
-98 725 -46 216 -44 210 -52 210 -3 0 -19 -33 -35 -73 -72 -179 -188 -384
-243 -427 -33 -25 -83 -26 -148 -1 -411 160 -556 225 -715 321 -198 120 -381
263 -411 322 -33 64 -33 63 92 263 30 48 60 114 76 165 14 47 64 164 110 260
47 96 105 216 128 265 148 307 489 909 604 1062 98 132 226 249 351 323 43 25
424 184 670 280 25 10 176 70 335 135 160 65 308 125 330 134 22 9 52 24 66
34 14 9 71 35 126 57 l99 39 95 -14 c52 -7 139 -20 194 -29 324 -50 767 -46
1115 10 85 13 173 27 195 30 22 4 47 10 55 15 20 11 123 11 136 0z"/>
</g>
</svg>
